<svg xmlns="http://www.w3.org/2000/svg" width="1480" height="1335" viewBox="0 0 1480 1335" role="img" aria-labelledby="title desc">
<title id="title">Agent Observatory · Seoul</title><desc id="desc">로컬 Atlas Collector는 30분마다 raw JSON Outbox와 이미지 메타데이터를 확정하고 Zstd로 전송한다. GitHub Actions는 매시간 유지관리와 매일 분석을 Vercel 서울 API에 요청한다. Vercel은 이미지를 다시 제거하고 서버 마스킹 뒤 Zstd로 재압축해 Supabase 서울의 비공개 Storage와 Postgres에 접수한다. Vercel Workflow가 분석하고, 설정된 서버 무료 제공자 풀 또는 사용자 설정 OpenAI 호환 BYOK endpoint로 허용한 근거만 전송한다. Agent Observatory portal은 Sessions·Wiki·Settings를 제공하며, 원격 MCP는 점선으로 표시한 제안 경계다.</desc>
<rect width="1480" height="1335" fill="white"/>
<defs><marker id="arrow" markerWidth="8" markerHeight="8" refX="7" refY="4" orient="auto-start-reverse" markerUnits="userSpaceOnUse"><path d="M0 0 L8 4 L0 8 Z" fill="#3B5BA5"/></marker></defs>
<text x="24" y="45" font-family="Noto Sans KR, Noto Sans CJK KR, sans-serif" font-size="30" font-weight="700" letter-spacing="-0.35" fill="#16213E">Agent Observatory<tspan dx="10" font-size="17" font-weight="700" fill="#64748B">Seoul</tspan></text>
<rect x="350" y="110" width="720" height="275" rx="14" fill="#FBF5FF" stroke="#8B3DFF"/>
<!-- Embedded from icons/github.svg; see icons/SOURCES.md -->
<svg x="370" y="127" width="28" height="28" fill="none" viewBox="0 0 100 100" aria-hidden="true"><path fill="#161614" d="M50 1C22.39 1 0 23.386 0 51c0 22.092 14.327 40.834 34.193 47.446 2.499.462 3.417-1.085 3.417-2.406 0-1.192-.047-5.131-.068-9.309-13.91 3.025-16.846-5.9-16.846-5.9-2.274-5.779-5.551-7.315-5.551-7.315-4.537-3.104.341-3.04.341-3.04 5.022.353 7.665 5.153 7.665 5.153 4.46 7.644 11.697 5.434 14.55 4.156.449-3.232 1.745-5.437 3.175-6.686-11.106-1.264-22.78-5.552-22.78-24.71 0-5.459 1.953-9.92 5.151-13.42-.519-1.26-2.23-6.346.485-13.233 0 0 4.198-1.344 13.753 5.125 3.988-1.108 8.266-1.663 12.515-1.682 4.25.019 8.53.574 12.526 1.682 9.544-6.469 13.736-5.125 13.736-5.125 2.722 6.887 1.01 11.973.49 13.232 3.206 3.502 5.146 7.962 5.146 13.42 0 19.205-11.697 23.434-22.83 24.671 1.793 1.552 3.391 4.595 3.391 9.26 0 6.69-.058 12.074-.058 13.721 0 1.33.9 2.89 3.435 2.399C85.692 91.819 100 73.085 100 51c0-27.614-22.386-50-50-50"/><path fill="#161614" d="M18.727 72.227c-.11.248-.502.322-.857.152-.363-.163-.567-.502-.45-.751.109-.256.5-.327.862-.156.363.163.57.505.445.755m2.46 2.194c-.24.221-.706.118-1.022-.231-.327-.349-.388-.814-.146-1.04.246-.22.698-.117 1.026.232.327.353.39.816.14 1.04zm1.687 2.808c-.307.213-.808.013-1.118-.432-.306-.444-.306-.977.007-1.191.31-.214.804-.021 1.118.42.305.452.305.985-.008 1.203m2.853 3.252c-.274.302-.858.22-1.285-.192-.437-.403-.56-.975-.284-1.277.277-.303.864-.218 1.295.191.434.403.566.979.274 1.278m3.688 1.098c-.12.391-.683.57-1.25.403-.565-.171-.935-.63-.821-1.026.118-.394.682-.58 1.253-.401.565.17.936.625.818 1.024m4.197.465c.014.413-.466.755-1.06.762-.599.013-1.082-.32-1.088-.726 0-.416.469-.755 1.067-.765.594-.012 1.081.32 1.081.73m4.123-.158c.071.403-.342.816-.932.926-.58.106-1.118-.143-1.192-.541-.072-.413.35-.826.928-.933.592-.103 1.12.14 1.196.548"/></svg>
<text x="410" y="150" font-family="Noto Sans KR, Noto Sans CJK KR, sans-serif" font-size="21" font-weight="700" letter-spacing="-0.35" fill="#6D28D9">GitHub Actions</text>
<rect x="370" y="170" width="215" height="185" rx="12" fill="#EFF6FF" stroke="#B79BD9"/>
<text x="388" y="202" font-family="Noto Sans KR, Noto Sans CJK KR, sans-serif" font-size="21" font-weight="700" letter-spacing="-0.35" fill="#1D4ED8">CI · 배포</text>
<text x="388" y="240" font-family="Noto Sans KR, Noto Sans CJK KR, sans-serif" font-size="18" font-weight="400" fill="#475569">검사 · 웹 배포</text>
<text x="388" y="270" font-family="Noto Sans KR, Noto Sans CJK KR, sans-serif" font-size="18" font-weight="400" fill="#475569">npm 릴리스</text>
<rect x="605" y="170" width="445" height="185" rx="12" fill="#FBF5FF" stroke="#B79BD9"/>
<text x="623" y="202" font-family="Noto Sans KR, Noto Sans CJK KR, sans-serif" font-size="21" font-weight="700" letter-spacing="-0.35" fill="#16213E">예약 작업</text>
<rect x="623" y="220" width="200" height="115" rx="12" fill="#FFFFFF" stroke="#B79BD9"/>
<text x="639" y="249" font-family="Noto Sans KR, Noto Sans CJK KR, sans-serif" font-size="19" font-weight="700" letter-spacing="-0.35" fill="#16213E">유지관리</text>
<rect x="724" y="228" width="38" height="27" rx="7" fill="#DBEAFE"/><text x="743" y="248" font-family="Noto Sans KR, Noto Sans CJK KR, sans-serif" font-size="16" font-weight="700" letter-spacing="-0.35" text-anchor="middle" fill="#1D4ED8">1h</text>
<text x="639" y="281" font-family="Noto Sans KR, Noto Sans CJK KR, sans-serif" font-size="17" font-weight="400" fill="#475569">DB 연결 확인</text>
<text x="639" y="310" font-family="Noto Sans KR, Noto Sans CJK KR, sans-serif" font-size="17" font-weight="400" fill="#475569">만료 데이터 정리</text>
<rect x="838" y="220" width="194" height="115" rx="12" fill="#FFFFFF" stroke="#B79BD9"/>
<text x="854" y="249" font-family="Noto Sans KR, Noto Sans CJK KR, sans-serif" font-size="19" font-weight="700" letter-spacing="-0.35" fill="#16213E">누적 분석</text>
<rect x="949" y="228" width="38" height="27" rx="7" fill="#EDE9FE"/><text x="968" y="248" font-family="Noto Sans KR, Noto Sans CJK KR, sans-serif" font-size="16" font-weight="700" letter-spacing="-0.35" text-anchor="middle" fill="#6D28D9">1d</text>
<text x="854" y="281" font-family="Noto Sans KR, Noto Sans CJK KR, sans-serif" font-size="17" font-weight="400" fill="#475569">분석 기동 API 호출</text>
<text x="854" y="310" font-family="Noto Sans KR, Noto Sans CJK KR, sans-serif" font-size="17" font-weight="400" fill="#475569">하루치 범위 확정</text>
<g transform="translate(0 130)">
<rect x="24" y="305" width="296" height="230" rx="14" fill="#F8FAFC" stroke="#CBD5E1"/>
<!-- Embedded from icons/user.svg; see icons/SOURCES.md -->
<svg x="44" y="318" width="28" height="28" viewBox="0 0 24 24" fill="none" stroke="currentColor" stroke-width="2" stroke-linecap="round" stroke-linejoin="round" color="#16213E" aria-hidden="true">
  <path d="M8 7a4 4 0 1 0 8 0a4 4 0 0 0 -8 0" />
  <path d="M6 21v-2a4 4 0 0 1 4 -4h4a4 4 0 0 1 4 4v2" />
</svg>
<text x="82" y="341" font-family="Noto Sans KR, Noto Sans CJK KR, sans-serif" font-size="22" font-weight="700" letter-spacing="-0.35" fill="#16213E">사용자 · 어디서나</text>
<rect x="44" y="370" width="256" height="140" rx="14" fill="#EFF6FF" stroke="#3B5BA5"/>
<!-- Embedded from icons/react.svg; see icons/SOURCES.md -->
<svg x="64" y="387" width="28" height="28" viewBox="0 0 100 100" fill="none" aria-hidden="true"><g clip-path="url(#a)"><path fill="#61dafb" d="M50.307 58.816a8.816 8.816 0 1 0 0-17.632 8.816 8.816 0 0 0 0 17.632"/><path stroke="#61dafb" stroke-width="5" d="M50.307 68.063c26.126 0 47.306-8.087 47.306-18.063s-21.18-18.062-47.306-18.062C24.18 31.938 3 40.024 3 50s21.18 18.063 47.307 18.063Z"/><path stroke="#61dafb" stroke-width="5" d="M34.664 59.031C47.727 81.658 65.321 95.957 73.96 90.97c8.64-4.988 5.053-27.374-8.01-50C52.885 18.342 35.291 4.043 26.652 9.03s-5.052 27.374 8.011 50Z"/><path stroke="#61dafb" stroke-width="5" d="M34.664 40.969c-13.063 22.626-16.65 45.012-8.01 50 8.638 4.988 26.232-9.311 39.295-31.938s16.65-45.012 8.01-50c-8.638-4.988-26.232 9.311-39.295 31.938Z"/></g><defs><clipPath id="a"><path fill="#fff" d="M0 0h100v100H0z"/></clipPath></defs></svg>

<text x="104" y="410" font-family="Noto Sans KR, Noto Sans CJK KR, sans-serif" font-size="21" font-weight="700" letter-spacing="-0.35" fill="#16213E">브라우저</text>
<text x="64" y="446" font-family="Noto Sans KR, Noto Sans CJK KR, sans-serif" font-size="18" font-weight="400" fill="#475569">수동 업로드 · 분석 요청</text>
<text x="64" y="476" font-family="Noto Sans KR, Noto Sans CJK KR, sans-serif" font-size="18" font-weight="400" fill="#475569">기록·결과 조회</text>
<rect x="24" y="550" width="296" height="360" rx="14" fill="#F8FAFC" stroke="#CBD5E1"/>
<text x="44" y="582" font-family="Noto Sans KR, Noto Sans CJK KR, sans-serif" font-size="22" font-weight="700" letter-spacing="-0.35" fill="#16213E">수집 대상 PC</text>
<rect x="44" y="600" width="256" height="75" rx="10" fill="#EFF6FF" stroke="#3B5BA5"/>
<text x="64" y="630" font-family="Noto Sans KR, Noto Sans CJK KR, sans-serif" font-size="20" font-weight="700" letter-spacing="-0.35" fill="#1D4ED8">스케줄러</text>
<rect x="153" y="609" width="50" height="27" rx="7" fill="#DBEAFE"/><text x="178" y="629" font-family="Noto Sans KR, Noto Sans CJK KR, sans-serif" font-size="16" font-weight="700" letter-spacing="-0.35" text-anchor="middle" fill="#1D4ED8">30m</text>
<text x="64" y="656" font-family="Noto Sans KR, Noto Sans CJK KR, sans-serif" font-size="16" font-weight="400" fill="#475569">PC당 하나 · 중복 실행 방지</text>
<path d="M172 675 V702" fill="none" stroke="#3B5BA5" stroke-width="1.6" marker-end="url(#arrow)"/>
<rect x="44" y="702" width="256" height="112" rx="10" fill="#EFF6FF" stroke="#3B5BA5"/>
<text x="64" y="732" font-family="Noto Sans KR, Noto Sans CJK KR, sans-serif" font-size="21" font-weight="700" letter-spacing="-0.35" fill="#1D4ED8">Atlas Collector</text>
<text x="64" y="763" font-family="Noto Sans KR, Noto Sans CJK KR, sans-serif" font-size="17" font-weight="400" fill="#475569">변경분 전송 · ACK 확인</text>
<text x="64" y="794" font-family="Noto Sans KR, Noto Sans CJK KR, sans-serif" font-size="17" font-weight="400" fill="#475569">raw JSON · 이미지 메타 + SQLite</text>
<text x="44" y="849" font-family="Noto Sans KR, Noto Sans CJK KR, sans-serif" font-size="17" font-weight="400" fill="#31559F">프로젝트 기본 all · 제외 우선</text>
<text x="44" y="879" font-family="Noto Sans KR, Noto Sans CJK KR, sans-serif" font-size="17" font-weight="400" fill="#31559F">에이전트 원본은 로컬 유지</text>
<rect x="350" y="305" width="720" height="605" rx="14" fill="#F8FAFC" stroke="#CBD5E1"/>
<!-- Embedded from icons/vercel.svg; see icons/SOURCES.md -->
<svg x="372" y="324" width="28" height="28" fill="none" viewBox="0 0 100 100" aria-hidden="true"><path fill="#000" fill-rule="evenodd" d="M100 93.957 50 7 0 93.957z" clip-rule="evenodd"/></svg>
<text x="410" y="348" font-family="Noto Sans KR, Noto Sans CJK KR, sans-serif" font-size="23" font-weight="700" letter-spacing="-0.35" fill="#1D4ED8">Vercel<tspan dx="10" font-size="17" font-weight="700" fill="#64748B">Seoul · icn1</tspan></text>
<rect x="380" y="390" width="660" height="150" rx="14" fill="#EFF6FF" stroke="#3B5BA5"/>
<!-- Embedded from icons/nextdotjs.svg; see icons/SOURCES.md -->
<svg x="400" y="407" width="28" height="28" fill="none" viewBox="0 0 100 100" aria-hidden="true"><g clip-path="url(#architecture-overview-nextdotjs-3-a)"><path fill="#000" d="M50 99.999c27.614 0 50-22.386 50-50s-22.386-50-50-50-50 22.386-50 50 22.386 50 50 50"/><path fill="url(#architecture-overview-nextdotjs-3-b)" d="M83.06 87.51 38.412 30H30v39.983h6.73V38.545L77.777 91.58a50 50 0 0 0 5.283-4.07"/><path fill="url(#architecture-overview-nextdotjs-3-c)" d="M70.556 29.999h-6.667v40h6.667z"/></g><defs><linearGradient id="architecture-overview-nextdotjs-3-b" x1="60.556" x2="80.278" y1="64.721" y2="89.166" gradientUnits="userSpaceOnUse"><stop stop-color="#fff"/><stop offset="1" stop-color="#fff" stop-opacity="0"/></linearGradient><linearGradient id="architecture-overview-nextdotjs-3-c" x1="67.222" x2="67.111" y1="29.999" y2="59.374" gradientUnits="userSpaceOnUse"><stop stop-color="#fff"/><stop offset="1" stop-color="#fff" stop-opacity="0"/></linearGradient><clipPath id="architecture-overview-nextdotjs-3-a"><path fill="#fff" d="M0 0h100v100H0z"/></clipPath></defs></svg>
<text x="440" y="430" font-family="Noto Sans KR, Noto Sans CJK KR, sans-serif" font-size="21" font-weight="700" letter-spacing="-0.35" fill="#1D4ED8">Next.js · Web + API</text>
<text x="400" y="466" font-family="Noto Sans KR, Noto Sans CJK KR, sans-serif" font-size="18" font-weight="400" fill="#475569">인증 · Zstd 해제 · 이미지 제거 · 마스킹 ON/OFF (<tspan font-weight="700" fill="#1D4ED8">기본 ON</tspan>)</text>
<text x="400" y="496" font-family="Noto Sans KR, Noto Sans CJK KR, sans-serif" font-size="18" font-weight="400" fill="#475569">세션 접수·조회 · Zstd 재압축 · 수동 분석</text>
<rect x="380" y="610" width="660" height="240" rx="14" fill="#FFF7ED" stroke="#C98A2B"/>
<!-- Embedded from icons/vercel.svg; see icons/SOURCES.md -->
<svg x="400" y="627" width="28" height="28" fill="none" viewBox="0 0 100 100" aria-hidden="true"><path fill="#000" fill-rule="evenodd" d="M100 93.957 50 7 0 93.957z" clip-rule="evenodd"/></svg>
<text x="440" y="650" font-family="Noto Sans KR, Noto Sans CJK KR, sans-serif" font-size="21" font-weight="700" letter-spacing="-0.35" fill="#1D4ED8">Vercel Workflow</text>
<rect x="400" y="676" width="294" height="117" rx="10" fill="#FFFFFF" stroke="#C98A2B"/>
<text x="416" y="705" font-family="Noto Sans KR, Noto Sans CJK KR, sans-serif" font-size="20" font-weight="700" letter-spacing="-0.35" fill="#16213E">지표 · 개선 후보</text>
<text x="416" y="737" font-family="Noto Sans KR, Noto Sans CJK KR, sans-serif" font-size="17" font-weight="400" fill="#475569">하루치 범위 · 미분석 복구</text>
<text x="416" y="766" font-family="Noto Sans KR, Noto Sans CJK KR, sans-serif" font-size="17" font-weight="400" fill="#475569">코드 집계 → 규칙 평가</text>
<path d="M694 736 H724" fill="none" stroke="#3B5BA5" stroke-width="1.6" marker-end="url(#arrow)"/>
<rect x="724" y="676" width="296" height="117" rx="10" fill="#FFFFFF" stroke="#C98A2B"/>
<text x="740" y="705" font-family="Noto Sans KR, Noto Sans CJK KR, sans-serif" font-size="20" font-weight="700" letter-spacing="-0.35" fill="#6D28D9">AI 설명 · 근거 검증</text>
<text x="740" y="737" font-family="Noto Sans KR, Noto Sans CJK KR, sans-serif" font-size="17" font-weight="400" fill="#475569"><tspan font-weight="700" fill="#6D28D9">무료 풀 공통 1개</tspan> · 새 분석만</text>
<text x="740" y="766" font-family="Noto Sans KR, Noto Sans CJK KR, sans-serif" font-size="17" font-weight="400" fill="#475569">실패 시 <tspan font-weight="700" fill="#9A620A">백오프</tspan> 후 재시도</text>
<text x="400" y="825" font-family="Noto Sans KR, Noto Sans CJK KR, sans-serif" font-size="17" font-weight="400" fill="#475569">공통: 멱등 실행 · 진행 상태 저장 · 중단 후 복구</text>


<path d="M300 440 H380" fill="none" stroke="#3B5BA5" stroke-width="1.6" marker-end="url(#arrow)"/>
<path d="M300 760 H335 V495 H380" fill="none" stroke="#3B5BA5" stroke-width="1.6" marker-end="url(#arrow)"/>
<text x="410" y="580" font-family="Noto Sans KR, Noto Sans CJK KR, sans-serif" font-size="17" fill="#31559F">분석 기동 API → 인증·중복 확인 후 시작</text>
<path d="M885 540 V610" fill="none" stroke="#3B5BA5" stroke-width="1.6" marker-end="url(#arrow)"/>
<rect x="1100" y="305" width="356" height="370" rx="14" fill="#F0FDF4" stroke="#3F8E55"/>
<!-- Embedded from icons/supabase.svg; see icons/SOURCES.md -->
<svg x="1120" y="322" width="28" height="28" fill="none" viewBox="0 0 100 100" aria-hidden="true"><g clip-path="url(#architecture-overview-supabase-5-a)"><path fill="url(#architecture-overview-supabase-5-b)" d="M57.894 98.338c-2.554 3.217-7.734 1.454-7.796-2.654l-.9-60.082h40.4c7.316 0 11.397 8.452 6.847 14.182z"/><path fill="url(#architecture-overview-supabase-5-c)" fill-opacity=".2" d="M57.894 98.338c-2.554 3.217-7.734 1.454-7.796-2.654l-.9-60.082h40.4c7.316 0 11.397 8.452 6.847 14.182z"/><path fill="#3ecf8e" d="M41.464 1.66c2.555-3.217 7.735-1.454 7.796 2.654l.395 60.082H9.76c-7.318 0-11.399-8.452-6.848-14.182z"/></g><defs><linearGradient id="architecture-overview-supabase-5-b" x1="49.198" x2="85.103" y1="48.924" y2="63.982" gradientUnits="userSpaceOnUse"><stop stop-color="#249361"/><stop offset="1" stop-color="#3ecf8e"/></linearGradient><linearGradient id="architecture-overview-supabase-5-c" x1="33.279" x2="49.654" y1="27.128" y2="57.953" gradientUnits="userSpaceOnUse"><stop/><stop offset="1" stop-opacity="0"/></linearGradient><clipPath id="architecture-overview-supabase-5-a"><path fill="#fff" d="M0 0h100v100H0z"/></clipPath></defs></svg>
<text x="1160" y="348" font-family="Noto Sans KR, Noto Sans CJK KR, sans-serif" font-size="22" font-weight="700" letter-spacing="-0.35" fill="#166534">Supabase<tspan dx="10" font-size="17" font-weight="700" fill="#64748B">Seoul</tspan></text>
<text x="1120" y="380" font-family="Noto Sans KR, Noto Sans CJK KR, sans-serif" font-size="18" font-weight="400" fill="#166534">ap-northeast-2<tspan font-weight="700" fill="#166534"> · Free</tspan></text>
<rect x="1120" y="402" width="316" height="105" rx="14" fill="#F0FDF4" stroke="#3F8E55"/>
<text x="1140" y="442" font-family="Noto Sans KR, Noto Sans CJK KR, sans-serif" font-size="21" font-weight="700" letter-spacing="-0.35" fill="#166534">PostgreSQL</text>
<text x="1140" y="478" font-family="Noto Sans KR, Noto Sans CJK KR, sans-serif" font-size="18" font-weight="400" fill="#475569">접수·지표·전체 결과 <tspan font-weight="700" fill="#166534">7일</tspan></text>
<text x="1140" y="498" font-family="Noto Sans KR, Noto Sans CJK KR, sans-serif" font-size="17" font-weight="400" fill="#166534">간단한 결과 요약 <tspan font-weight="700" fill="#166534">30일</tspan></text>
<rect x="1120" y="537" width="316" height="110" rx="14" fill="#F0FDF4" stroke="#3F8E55"/>
<text x="1140" y="577" font-family="Noto Sans KR, Noto Sans CJK KR, sans-serif" font-size="21" font-weight="700" letter-spacing="-0.35" fill="#166534">비공개 Storage</text>
<text x="1140" y="613" font-family="Noto Sans KR, Noto Sans CJK KR, sans-serif" font-size="18" font-weight="400" fill="#475569">마스킹 `.json.zst` · 최대 <tspan font-weight="700" fill="#166534">7일</tspan></text>
<path d="M1040 440 H1120" fill="none" stroke="#3B5BA5" stroke-width="1.6" marker-end="url(#arrow)"/>
<text x="1060" y="423" font-family="Noto Sans KR, Noto Sans CJK KR, sans-serif" font-size="16" font-weight="400" fill="#31559F">접수</text>
<path d="M1040 630 H1090 V595 H1120" fill="none" stroke="#3B5BA5" stroke-width="1.6" marker-end="url(#arrow)"/>
<text x="1052" y="658" font-family="Noto Sans KR, Noto Sans CJK KR, sans-serif" font-size="16" font-weight="400" fill="#31559F">읽기·저장</text>
<rect x="1100" y="700" width="356" height="225" rx="10" fill="#FBF5FF" stroke="#8B3DFF"/>
<text x="1120" y="733" font-family="Noto Sans KR, Noto Sans CJK KR, sans-serif" font-size="21" font-weight="700" letter-spacing="-0.35" fill="#6D28D9">AI 설명 API</text>
<rect x="1120" y="748" width="316" height="50" rx="10" fill="#FFFFFF" stroke="#B79BD9"/>
<text x="1134" y="772" font-family="Noto Sans KR, Noto Sans CJK KR, sans-serif" font-size="19" font-weight="700" letter-spacing="-0.35" fill="#6D28D9">서버 무료 제공자 풀</text>
<text x="1134" y="794" font-family="Noto Sans KR, Noto Sans CJK KR, sans-serif" font-size="16" font-weight="400" fill="#475569">NVIDIA 3 · OpenRouter 2 · Z.ai 1</text>
<rect x="1120" y="808" width="316" height="77" rx="10" fill="#FFFFFF" stroke="#B79BD9"/>
<!-- Embedded from icons/openrouter.svg; see icons/SOURCES.md -->
<svg x="1134" y="863" width="16" height="16" viewBox="0 0 24 24" aria-hidden="true"><title>OpenRouter</title><path d="M16.778 1.844v1.919q-.569-.026-1.138-.032-.708-.008-1.415.037c-1.93.126-4.023.728-6.149 2.237-2.911 2.066-2.731 1.95-4.14 2.75-.396.223-1.342.574-2.185.798-.841.225-1.753.333-1.751.333v4.229s.768.108 1.61.333c.842.224 1.789.575 2.185.799 1.41.798 1.228.683 4.14 2.75 2.126 1.509 4.22 2.11 6.148 2.236.88.058 1.716.041 2.555.005v1.918l7.222-4.168-7.222-4.17v2.176c-.86.038-1.611.065-2.278.021-1.364-.09-2.417-.357-3.979-1.465-2.244-1.593-2.866-2.027-3.68-2.508.889-.518 1.449-.906 3.822-2.59 1.56-1.109 2.614-1.377 3.978-1.466.667-.044 1.418-.017 2.278.02v2.176L24 6.014Z"/></svg>
<text x="1134" y="830" font-family="Noto Sans KR, Noto Sans CJK KR, sans-serif" font-size="19" font-weight="700" letter-spacing="-0.35" fill="#6D28D9">개인 BYOK · OpenAI 호환</text>
<text x="1134" y="852" font-family="Noto Sans KR, Noto Sans CJK KR, sans-serif" font-size="16" font-weight="400" fill="#475569">Endpoint · API key · Model</text>
<text x="1158" y="878" font-family="Noto Sans KR, Noto Sans CJK KR, sans-serif" font-size="14" fill="#475569">OpenRouter 또는 직접 입력</text>
<text x="1120" y="914" font-family="Noto Sans KR, Noto Sans CJK KR, sans-serif" font-size="17" font-weight="400" fill="#475569">외부 AI 추론 리전은 별도</text>
<path d="M1040 790 H1100" fill="none" stroke="#3B5BA5" stroke-width="1.6" marker-end="url(#arrow)"/>

</g>
<path d="M480 355 V435" fill="none" stroke="#3B5BA5" stroke-width="1.6" stroke-dasharray="5 4" marker-end="url(#arrow)"/>
<text x="494" y="414" font-family="Noto Sans KR, Noto Sans CJK KR, sans-serif" font-size="16" font-weight="400" fill="#475569">웹 배포</text>
<path d="M723 335 V520" fill="none" stroke="#3B5BA5" stroke-width="1.6" marker-end="url(#arrow)"/>
<text x="735" y="414" font-family="Noto Sans KR, Noto Sans CJK KR, sans-serif" font-size="16" font-weight="400" fill="#475569">유지관리 API</text>
<path d="M935 335 V520" fill="none" stroke="#3B5BA5" stroke-width="1.6" marker-end="url(#arrow)"/>
<text x="947" y="414" font-family="Noto Sans KR, Noto Sans CJK KR, sans-serif" font-size="16" font-weight="400" fill="#475569">분석 기동 API</text>
<rect x="24" y="1090" width="1432" height="215" rx="14" fill="#F8FAFC" stroke="#CBD5E1" stroke-width="1.6"/>
<text x="44" y="1124" font-family="Noto Sans KR, Noto Sans CJK KR, sans-serif" font-size="22" font-weight="700" letter-spacing="-0.35" fill="#16213E">에이전트 사용 경계</text>
<text x="1250" y="1124" font-family="Noto Sans KR, Noto Sans CJK KR, sans-serif" font-size="15" font-weight="400" fill="#64748B">황색 점선 = 제안</text>
<rect x="44" y="1145" width="640" height="126" rx="12" fill="#EFF6FF" stroke="#3B5BA5"/>
<text x="64" y="1177" font-family="Noto Sans KR, Noto Sans CJK KR, sans-serif" font-size="20" font-weight="700" letter-spacing="-0.35" fill="#1D4ED8">현재 · Agent → 로컬 CLI</text>
<text x="64" y="1209" font-family="Noto Sans KR, Noto Sans CJK KR, sans-serif" font-size="17" font-weight="400" fill="#475569">/docs/collector.md · /llms.txt → inventory · status (읽기)</text>
<text x="64" y="1240" font-family="Noto Sans KR, Noto Sans CJK KR, sans-serif" font-size="17" font-weight="400" fill="#475569">pause · configure · sync (쓰기 · 범위 확인 뒤 실행)</text>
<rect x="712" y="1145" width="724" height="126" rx="12" fill="#FFFBEB" stroke="#9A620A" stroke-width="1.6" stroke-dasharray="6 4"/>
<text x="732" y="1177" font-family="Noto Sans KR, Noto Sans CJK KR, sans-serif" font-size="20" font-weight="700" letter-spacing="-0.35" fill="#9A620A">제안 · 원격 MCP</text>
<text x="732" y="1209" font-family="Noto Sans KR, Noto Sans CJK KR, sans-serif" font-size="17" font-weight="400" fill="#475569">읽기: device · session · analysis 상태</text>
<text x="732" y="1240" font-family="Noto Sans KR, Noto Sans CJK KR, sans-serif" font-size="17" font-weight="400" fill="#475569">쓰기: analyze · reanalyze · delete (확인 + idempotency)</text>
<path d="M364 1145 V1080 H12 V890 H44" fill="none" stroke="#3B5BA5" stroke-width="1.6" marker-end="url(#arrow)"/>
<text x="192" y="1070" font-family="Noto Sans KR, Noto Sans CJK KR, sans-serif" font-size="15" font-weight="400" fill="#31559F">로컬 실행</text>
<path d="M1070 1145 V1080 H1068 V625 H1040" fill="none" stroke="#9A620A" stroke-width="1.6" stroke-dasharray="6 4" marker-end="url(#arrow)"/>
<text x="1083" y="1070" font-family="Noto Sans KR, Noto Sans CJK KR, sans-serif" font-size="15" font-weight="400" fill="#9A620A">원격 tool 제안</text>
</svg>
